<svg xml:space="preserve" width="1000" height="1000" viewBox="0 0 1000 1000" xmlns:xlink="http://www.w3.org/1999/xlink" xmlns="http://www.w3.org/2000/svg"><defs><linearGradient id="a"><stop style="stop-color:#3c45e4;stop-opacity:1" offset="0"/><stop style="stop-color:#c96f57;stop-opacity:1" offset="1"/></linearGradient><linearGradient xlink:href="#a" id="b" x1="0" y1="499.996" x2="1000.027" y2="499.996" gradientUnits="userSpaceOnUse"/></defs><g fill="#909090" style="fill:url(#b)"><path d="M413.704 185.641v.953l.565-.706z" style="fill:url(#b)"/><path d="M499.996 0C224.322 0 0 224.287 0 499.996s224.322 499.996 499.996 499.996c275.709 0 500.031-224.252 500.031-499.996C1000.027 224.287 775.705 0 499.996 0m456.797 499.996c0 8.753-.776 17.294-1.306 25.94-3.211-8.117-8.082-18.705-9.246-23.258-1.695-6.917-12.035-31.022-12.035-31.022s-10.341-13.764-17.223-17.223c-6.847-3.459-12.035-12.07-24.105-18.917-12.07-6.918-17.188-10.341-27.494-10.341-10.376 0-20.646-13.8-32.752-20.682-12.07-6.847-13.764-3.423-13.764-3.423s13.764 20.646 13.764 25.799 15.459 13.764 31.023 10.306c0 0 10.305 18.952 15.458 24.105s-1.73 10.34-12.035 17.223c-10.34 6.847-8.611 5.152-13.835 10.305-5.152 5.153-22.34 13.835-27.528 17.223-5.153 3.424-25.8 13.765-36.105 3.424-5.047-4.977-3.494-15.459-6.882-22.376-3.459-6.882-39.599-60.245-56.822-84.315-3-4.235-10.34-17.294-15.458-20.646-5.153-3.494 12.07-3.494 12.07-3.494s0-12.07-1.73-20.647c-1.764-8.611 1.73-20.646 1.73-20.646s-17.223 10.305-22.446 13.764c-5.118 3.459-10.306-6.847-17.153-15.494-6.882-8.576-13.8-18.952-15.493-27.563-1.73-8.577 8.611-12.035 8.611-12.035l15.459-8.577s18.952-3.423 31.022-1.729c12.035 1.73 30.952 3.459 30.952 3.459s5.153-12.07-1.73-17.223c-6.846-5.153-22.41-13.765-29.292-12.035-6.847 1.694 3.423-8.612 12-15.494l-19.059-3.458s-17.329 8.611-22.517 10.34c-5.153 1.694-14.117 5.153-21.035 13.765-6.846 8.611 2.753 20.646-4.129 24.105-6.847 3.458-11.505 5.153-16.693 6.847-5.153 1.729-21.53 0-21.53 0-17.787 0-6.387 16.234-1.764 21.987l-13.764-16.8-10.2-24.07s-14.682-10.305-21.564-13.728c-6.882-3.459-28.093-15.494-28.093-15.494l1.482 15.494 19.94 20.187 1.766.46 10.376 13.764-22.906 1.729v-13.623c-21.599-5.224-15.952-10.588-18.387-12.247-5.118-3.423-17.082-12.07-17.082-12.07s-20.258 3.459-25.446 5.188-6.635 6.882-16.906 10.306c-10.376 3.458-15.034 8.611-18.458 13.764s-14.646 20.646-21.458 27.528c-6.917 6.918-19.693 5.153-24.846 5.153-5.188 0-30.035-6.882-30.035-6.882v-29.187s3.353-16.376 1.66-21.529l15.07-2.541 25.163-5.188 7.376-5.188 10.588-13.765s-11.893-8.611-3.317-20.646c4.13-5.788 18.987-6.882 25.87-12.035 6.846-5.153 17.258-8.611 17.258-8.611s12.07-10.306 24.105-22.376c0 0 8.611-5.188 18.917-8.647 0 0 29.293 25.835 34.481 25.835s24.105-12.035 24.105-12.035 5.153-15.459 3.46-20.647c-1.73-5.153-10.342-22.376-10.342-22.376s-5.153 8.612-10.305 15.494-8.612 15.494-8.612 15.494-24.105-1.659-25.799-6.812c-1.765-5.188-5.153-13.693-6.917-18.811-1.66-5.188-15.459-5.012-25.729-1.553-10.376 3.459 1.659-18.564 1.659-18.564s10.376-12.988 17.223-12.988 22.41-8.823 29.222-10.517c6.918-1.73 27.635-9.6 36.176-9.6 8.611 0 18.952 3.706 24.14 3.706h25.8l36.104-2.894s31.023 11.47 20.646 18.388c0 0 12.106 7.446 17.259 12.6 4.835 4.87 17.329-4.483 24.493-8.471 128.784 80.82 214.9 223.793 214.9 386.811zM135.49 230.64c0 6.882-9.388 8.54 0 25.834 12 22.376 1.694 32.717 1.694 32.717s-29.293 20.646-34.446 24.105-18.917 22.376-10.341 17.188c8.611-5.153 18.917-10.306 10.34 3.459-8.61 13.8-24.104 36.14-27.528 44.786s-20.646 29.258-20.646 39.6-6.882 31.022-5.153 39.633c1.165 6-2.647 23.682-5.647 30.952 2.33-96.773 34.905-185.959 88.692-258.91 1.764.177 3.035.636 3.035.636m55.304-65.998c42.104-38.858 91.444-69.845 145.866-90.809-5.365 6.882-11.859 13.94-11.859 13.94s-12.035-.034-34.446 24.106c-22.34 24.105-17.187 17.223-22.34 24.07s-3.459 8.611-15.529 17.258c-12 8.576-17.188 18.917-17.188 18.917l-18.952 6.882-15.458-6.882s-13.835 5.188-12.106-1.73c.494-1.834 1.235-3.74 2.012-5.752m206.323 40.163L390.27 194.5l6.847-15.494 16.587 6.635v-30.74l15.847-8.576 13.164 18.917 20.258 22.411-13.446 10.306-35.858 6.882v-18.247zm223.828 161.819c4.023-3.176 17.188 5.153 17.188 5.153s43.022 8.611 49.904 13.764c6.917 5.188 18.952 8.647 22.411 13.835 3.459 5.153 15.458 20.646 17.152 25.799 1.765 5.153 10.377 24.14 12.106 30.987 1.73 6.882 6.882 24.105 12.035 32.717 5.153 8.647 34.446 46.48 44.751 63.704l31.058-5.153s-3.494 15.458-6.917 20.646c-3.424 5.153-13.765 18.917-18.917 25.8-5.188 6.882-12.035 17.222-22.376 25.799-10.306 8.576-10.376 17.187-15.494 24.105-5.152 6.882-12.07 22.376-12.07 22.376s3.459 34.446 5.153 41.328-12.035 25.799-12.035 25.799l-15.529 15.529-20.752 27.493 1.694 25.8s-15.67 12.105-24.317 18.952c-8.541 6.846-7.2 12.034-14.082 18.952-6.847 6.847-33.775 18.917-40.658 20.646s-44.857 6.882-44.857 6.882V852.08l-.776-17.223s-5.224-20.646-10.412-27.528-2.93-17.259-11.54-25.835c-8.612-8.611-11.788-15.458-13.518-20.682-1.73-5.152 1.87-20.61 1.87-20.61s6.953-18.953 10.377-25.835c3.459-6.882.035-17.188-3.424-24.105s-5.117-24.14-5.117-29.258c0-5.153-13.835-13.8-18.988-18.953s-3.423-12.07-3.423-18.881c0-6.953-5.153-22.411-3.459-34.482 1.73-12.034-15.458-3.458-25.799 0s-17.188-3.458-17.188-13.8-18.917-1.693-30.987 5.154c-12.105 6.882-25.834 6.882-39.67 12.07-13.728 5.153-20.575-5.153-20.575-5.153s-12.106-10.305-20.647-15.494c-8.646-5.152-17.258-15.458-24.175-24.07-6.847-8.646-24.105-34.48-25.764-44.75-1.73-10.377 0-17.294 0-29.33s0-18.916 1.694-27.528c1.73-8.611 6.882-18.952 12.07-27.564 5.153-8.611 24.105-18.917 29.223-22.376 5.153-3.423 17.223-13.728 17.223-20.646 0-6.882 6.917-10.305 10.305-17.223 3.494-6.882 15.53-24.07 31.023-17.188 0 0 13.729-1.694 18.882-3.423s18.917-6.847 25.728-10.306c6.882-3.458 24.035-5.082 24.035-5.082s13.552 5.4 18.705 5.4 21.952-3 21.952-3 7.765 24.952 7.765 30.14 5.153 10.306 13.8 13.765c8.505 3.494 48.139 12.14 65.362-1.66M818.903 704.06c0 5.153-1.729 18.953-3.458 25.835-1.8 6.882-5.188 18.952-6.882 25.764-1.73 6.917-10.341 20.681-15.459 24.14-5.153 3.459-13.8 13.8-18.917 15.494-5.153 1.729-8.647-12.07-6.917-18.953 1.764-6.882 10.34-25.799 10.34-25.799s1.73-10.305 3.424-17.223c1.765-6.847 22.411-15.458 22.411-15.458l13.8-25.835c-.071-.035 1.658 6.918 1.658 12.035M54.986 601.5c2.224.564 5.4 2.188 9.882 6.176 6.494 5.647 10.341 8.541 18.953 12.035 8.576 3.494 12.035 8.576 22.376 13.764s6.917 1.765 20.646 17.223c13.8 15.459 12.07 15.459 15.494 24.105s8.611 17.188 12.07 22.411c3.458 5.153 13.764 8.577 18.917 12.035s13.764 6.882 18.917 6.882c5.188 0 20.682 15.494 29.293 17.188 8.612 1.765 8.612 18.988 8.612 18.988l-8.612 24.07-6.917 25.799 6.917 20.646s-10.376 8.647-17.188 8.647c-6.352 0-8.505 4.023-15.458 2.118C123.243 772.283 75.633 692.097 54.986 601.5" style="fill:url(#b)"/></g></svg>